<svg width="62" height="63" viewBox="0 0 62 63" fill="none" xmlns="http://www.w3.org/2000/svg">
<g clip-path="url(#clip0_50_74)">
<path d="M28.9697 0.0169535C28.8364 0.0292684 28.4121 0.0723708 28.0303 0.103158C19.2243 0.909786 10.9758 5.73723 5.75152 13.157C2.84242 17.2825 0.98182 21.9621 0.278788 26.9189C0.030303 28.6491 0 29.1602 0 31.5062C0 33.8522 0.030303 34.3632 0.278788 36.0935C1.96363 47.9219 10.2485 57.86 21.4848 61.542C23.497 62.2008 25.6182 62.6508 28.0303 62.9214C28.9697 63.0264 33.0303 63.0264 33.9697 62.9214C38.1333 62.4534 41.6606 61.407 45.1394 59.6026C45.6727 59.3255 45.7758 59.2517 45.703 59.1901C45.6546 59.1532 43.3818 56.056 40.6545 52.3122L35.6969 45.5082L29.4848 36.1673C26.0667 31.0321 23.2545 26.8327 23.2303 26.8327C23.2061 26.8265 23.1818 30.9766 23.1697 36.0442C23.1515 44.9171 23.1454 45.2743 23.0364 45.4836C22.8788 45.7853 22.7576 45.9085 22.503 46.0439C22.3091 46.1425 22.1394 46.1609 21.2243 46.1609H20.1757L19.897 45.9823C19.7152 45.8653 19.5818 45.7114 19.4909 45.5329L19.3637 45.2558L19.3758 32.9101L19.394 20.5582L19.5818 20.3181C19.6788 20.1887 19.8849 20.0225 20.0303 19.9425C20.2788 19.8193 20.3757 19.807 21.4242 19.807C22.6606 19.807 22.8667 19.8563 23.1879 20.2134C23.2788 20.3119 26.6424 25.4596 30.6667 31.6601C34.6909 37.8607 40.194 46.3271 42.897 50.4835L47.8061 58.0387L48.0545 57.8724C50.2545 56.4192 52.5818 54.3503 54.4243 52.1952C58.3454 47.6202 60.8728 42.0416 61.7213 36.0935C61.9699 34.3632 62 33.8522 62 31.5062C62 29.1602 61.9699 28.6491 61.7213 26.9189C60.0361 15.0904 51.7515 5.15227 40.5152 1.47011C38.5334 0.817422 36.4242 0.367928 34.0606 0.0970002C33.4788 0.0354259 29.4727 -0.0323061 28.9697 0.0169535ZM41.6606 19.0681C41.9515 19.2159 42.1879 19.4992 42.2727 19.7947C42.3212 19.9548 42.3333 23.3783 42.3212 31.0936L42.303 42.1647L40.3818 39.1722L38.4545 36.1797V28.1319C38.4545 22.9288 38.4788 20.0041 38.5152 19.8624C38.6121 19.5176 38.8242 19.2467 39.1152 19.0866C39.3636 18.9573 39.4546 18.9449 40.4061 18.9449C41.303 18.9449 41.4606 18.9573 41.6606 19.0681Z" fill="white"/>
</g>
<defs>
<clipPath id="clip0_50_74">
<rect width="62" height="63" fill="white"/>
</clipPath>
</defs>
</svg>
